# xmcd
#
# Track frame offsets: 
#        150
#        15750
#        31575
#        48412
#        64921
#        84280
#        102917
#        118498
#
# Disc length: 1825 seconds
#
# Revision: 0
# Processed by: cddbd v1.5.2PL0 Copyright (c) Steve Scherf et al.
# Submitted via: ExactAudioCopy v1.3
#
DISCID=58071f08
DTITLE=Mark Joseph - The Musician and the Muse
DYEAR=2019
DGENRE=Blues
TTITLE0=Walk to the Water
TTITLE1=Fleetwood Brougham
TTITLE2=Nobody Knows You When You're Down and Out
TTITLE3=Bound to Be Blessed
TTITLE4=Mystery Train
TTITLE5=The Ghost of Dr. John
TTITLE6=Poor People Blues
TTITLE7=When the Cold Winds Blow
EXTD=
EXTT0=
EXTT1=
EXTT2=
EXTT3=
EXTT4=
EXTT5=
EXTT6=
EXTT7=
PLAYORDER=
